# AST/ASF file generated using VICON BodyLanguage
# -----------------------------------------------
:version 1.10
:name VICON
:units
  mass 1.0
  length 0.45
  angle deg
:documentation
   .ast/.asf automatically generated from VICON data using
   VICON BodyBuilder and BodyLanguage model FoxedUp or BRILLIANT.MOD
:root
   order TX TY TZ RX RY RZ
   axis XYZ
   position 0 0 0  
   orientation 0 0 0 
:bonedata
  begin
     id 1 
     name lhipjoint
     direction 0.606768 -0.715223 0.346827 
     length 2.41543 
     axis 0 0 0  XYZ
  end
  begin
     id 2 
     name lfemur
     direction 0.34202 -0.939693 0  
     length 7.2778  
     axis 0 0 20  XYZ
    dof rx ry rz
    limits (-160.0 20.0)
           (-70.0 70.0)
           (-60.0 70.0)
  end
  begin
     id 3 
     name ltibia
     direction 0.34202 -0.939693 0   
     length 7.61811   
     axis 0 0 20   XYZ
    dof rx
    limits (-10.0 170.0)
  end
  begin
     id 4 
     name lfoot
     direction 0.0823924 -0.226371 0.97055   
     length 2.33618   
     axis -90 7.62852e-016 20   XYZ
    dof rx rz
    limits (-45.0 90.0)
           (-70.0 20.0)
  end
  begin
     id 5 
     name ltoes
     direction 1.53554e-011 -4.21934e-011 1   
     length 1.17015   
     axis -90 7.62852e-016 20   XYZ
    dof rx
    limits (-90.0 20.0)
  end
  begin
     id 6 
     name rhipjoint
     direction -0.6077 -0.714582 0.346516   
     length 2.4176  
     axis 0 0 0  XYZ 
  end
  begin
     id 7 
     name rfemur
     direction -0.34202 -0.939693 0   
     length 7.28127   
     axis 0 0 -20   XYZ
    dof rx ry rz
    limits (-160.0 20.0)
           (-70.0 70.0)
           (-70.0 60.0)
  end
  begin
     id 8 
     name rtibia
     direction -0.34202 -0.939693 0   
     length 7.77648   
     axis 0 0 -20   XYZ
    dof rx
    limits (-10.0 170.0)
 end
 begin
     id 9 
     name rfoot
     direction -0.0809463 -0.222398 0.97159   
     length 2.37533  
     axis -90 -7.62852e-016 -20   XYZ
    dof rx rz
    limits (-45.0 90.0)
           (-20.0 70.0)
  end
  begin
     id 10 
     name rtoes
     direction -1.53568e-011 -4.21714e-011 1   
     length 1.18972   
     axis -90 -7.62852e-016 -20   XYZ
    dof rx
    limits (-90.0 20.0)
  end
  begin
     id 11 
     name lowerback
     direction 0.010968 0.991932 -0.126297   
     length 2.21698   
     axis 0 0 0   XYZ
    dof rx ry rz
    limits (-20.0 45.0)
           (-30.0 30.0)
           (-30.0 30.0)
  end
  begin
     id 12 
     name upperback
     direction 0.0167007 0.997503 -0.0686276   
     length 2.22371   
     axis 0 0 0   XYZ
    dof rx ry rz
    limits (-20.0 45.0)
           (-30.0 30.0)
           (-30.0 30.0)
  end
  begin
     id 13 
     name thorax
     direction 0.0111721 0.999885 -0.0102878   
     length 2.25242   
     axis 0 0 0   XYZ
    dof rx ry rz
    limits (-20.0 45.0)
           (-30.0 30.0)
           (-30.0 30.0)
  end
  begin
     id 14 
     name lowerneck
     direction -0.0120265 0.990428 0.137508   
     length 1.57674   
     axis 0 0 0   XYZ
    dof rx ry rz
    limits (-20.0 45.0)
           (-30.0 30.0)
           (-30.0 30.0)
  end
  begin
     id 15 
     name upperneck
     direction 0.0175669 0.998907 0.0433089   
     length 1.5618   
     axis 0 0 0   XYZ
    dof rx ry rz
    limits (-20.0 45.0)
           (-30.0 30.0)
           (-30.0 30.0)
  end
  begin
     id 16
     name head
     direction 0.00754609 0.99997 0.00185367  
     length 1.60579  
     axis 0 0 0   XYZ
    dof rx ry rz
    limits (-20.0 45.0)
           (-30.0 30.0)
           (-30.0 30.0)
  end
  begin
     id 17 
     name lclavicle
     direction 0.885866 0.429166 -0.176231  
     length 3.44967  
     axis 0 0 0   XYZ
    dof ry rz
    limits (-20.0 10.0)
           (0.0 20.0)
  end
  begin
     id 18 
     name lhumerus
     direction 1 -4.48973e-011 -1.90255e-027   
     length 5.20607   
     axis 180 -30 -90   XYZ
    dof rx ry rz
    limits (-60.0 90.0)
           (-90.0 90.0)
           (-90.0 90.0)
  end
  begin
     id 19
     name lradius
     direction 1 -4.48956e-011 9.87925e-027   
     length 3.39961   
     axis 180 -30 -90   XYZ
    dof rx
    limits (-10.0 170.0)
  end
  begin
     id 20
     name lwrist
     direction 1 -4.48985e-011 1.73247e-026   
     length 1.6998   
     axis -9.60847e-015 90 90   XYZ
    dof ry
    limits (-180.0 0.0)
 end
  begin
     id 21 
     name lhand
     direction 1 -4.48798e-011 3.46119e-026   
     length 0.519693   
     axis -2.21073e-014 90 90   XYZ
    dof rx rz
    limits (-90.0 90.0)
           (-45.0 45.0)
  end
  begin
     id 22 
     name lfingers
     direction 1 -4.48938e-011 6.92797e-026   
     length 0.41899   
     axis -4.42155e-014 90 90   XYZ
    dof rx
    limits (0.0 90.0)
  end
  begin
     id 23
     name lthumb
     direction 0.707107 -6.34952e-011 0.707107   
     length 0.601588   
     axis -90 45 6.0103e-014   XYZ
    dof rx rz
    limits (-45.0 45.0)
           (-45.0 45.0)
  end
  begin
     id 24 
     name rclavicle
     direction -0.866736 0.456792 -0.200276   
     length 3.45032  
     axis 0 0 0   XYZ 
    dof ry rz
    limits (-10.0 20.0)
           (-20.0 0.0)
  end
  begin
     id 25 
     name rhumerus
     direction -1 -4.4897e-011 8.65094e-028  
     length 5.32214   
     axis 180 30 90   XYZ
    dof rx ry rz
    limits (-90.0 60.0)
           (-90.0 90.0)
           (-90.0 90.0)
  end
  begin
     id 26 
     name rradius
     direction -1 -4.48987e-011 1.08427e-026   
     length 3.51208   
     axis 180 30 90   XYZ
    dof rx
    limits (-10.0 170.0)
  end
  begin
     id 27 
     name rwrist
     direction -1 -4.48961e-011 1.73222e-026   
     length 1.75604   
     axis -9.60847e-015 -90 -90   XYZ
    dof ry
    limits (-180.0 0.0)
  end
  begin
     id 28
     name rhand
     direction -1 -4.48895e-011 3.46314e-026   
     length 0.586681   
     axis -2.21073e-014 -90 -90   XYZ
    dof rx rz
    limits (-90.0 90.0)
           (-45.0 45.0)
  end
  begin
     id 29
     name rfingers
     direction -1 -4.48968e-011 6.92916e-026   
     length 0.472997   
     axis -4.42155e-014 -90 -90   XYZ
    dof rx
    limits (0.0 90.0)
  end
  begin
     id 30
     name rthumb
     direction -0.707107 -6.34848e-011 0.707107   
     length 0.679133   
     axis -90 -45 -6.0103e-014   XYZ
    dof rx rz
    limits (-45.0 45.0)
           (-45.0 45.0)
  end
:hierarchy
  begin
    root lhipjoint rhipjoint lowerback
    lhipjoint lfemur
    lfemur ltibia
    ltibia lfoot
    lfoot ltoes
    rhipjoint rfemur
    rfemur rtibia
    rtibia rfoot
    rfoot rtoes
    lowerback upperback
    upperback thorax
    thorax lowerneck lclavicle rclavicle
    lowerneck upperneck
    upperneck head
    lclavicle lhumerus
    lhumerus lradius
    lradius lwrist
    lwrist lhand lthumb
    lhand lfingers
    rclavicle rhumerus
    rhumerus rradius
    rradius rwrist
    rwrist rhand rthumb
    rhand rfingers
  end

#!OML:ASF H:\Dans Jumps\Project 1\Capture day 1\Session 1\subject.ASF
:FULLY-SPECIFIED
:DEGREES
1
root -0.236668 17.6672 -13.7551 4.86525 -0.449867 -1.06344
lowerback -5.47437 -0.830258 -0.507225
upperback 2.50403 -1.1435 1.36682
thorax 5.71269 -0.611973 1.58754
lowerneck -13.5555 -0.0145985 -2.35047
upperneck 13.6025 -0.343492 4.95509
head 6.37505 0.123483 1.93937
rclavicle 1.18277e-014 -1.27222e-014
rhumerus -23.4793 -16.8245 -80.5016
rradius 22.7127
rwrist 36.1256
rhand -18.583 -27.4445
rfingers 7.12502
rthumb 7.70768 -57.284
lclavicle 1.18277e-014 -1.27222e-014
lhumerus -18.1427 4.28079 85.257
lradius 16.7666
lwrist -5.25852
lhand -25.5126 -3.15615
lfingers 7.12502
lthumb 1.01645 26.8212
rfemur -9.03657 -5.67797 21.0738
rtibia 18.9101
rfoot -13.6551 -4.11926
rtoes 17.6468
lfemur -4.95986 6.32879 -15.7109
ltibia 11.4561
lfoot -7.76911 7.76581
ltoes 3.92306
2
root -0.225806 17.6678 -13.7506 4.88689 -0.437919 -1.05207
lowerback -5.49205 -0.813338 -0.55732
upperback 2.48612 -1.11683 1.36737
thorax 5.70415 -0.600534 1.61892
lowerneck -13.4902 -0.0382337 -2.42835
upperneck 13.5349 -0.366298 5.00587
head 6.34334 0.111295 1.96534
rclavicle 2.11209e-015 -6.75868e-015
rhumerus -23.4533 -16.7988 -80.6456
rradius 22.6771
rwrist 36.1043
rhand -18.6224 -27.2914
rfingers 7.12502
rthumb 7.66965 -57.1323
lclavicle 2.11209e-015 -6.75868e-015
lhumerus -18.1596 4.15635 85.1155
lradius 16.8283
lwrist -5.02695
lhand -25.5606 -2.98235
lfingers 7.12502
lthumb 0.970085 26.9952
rfemur -9.03679 -5.62519 21.0302
rtibia 18.8971
rfoot -13.6513 -4.21443
rtoes 17.5449
lfemur -4.95608 6.35911 -15.7622
ltibia 11.4305
lfoot -7.80884 7.71491
ltoes 3.95698
3
root -0.214601 17.6681 -13.7441 4.90865 -0.438882 -1.05912
lowerback -5.51469 -0.789872 -0.57411
upperback 2.45973 -1.08375 1.36451
thorax 5.68851 -0.584516 1.62868
lowerneck -13.4503 0.00439096 -2.3649
upperneck 13.4412 -0.310543 4.95761
head 6.30438 0.136359 1.94339
rclavicle -5.26779e-015 2.18663e-015
rhumerus -23.4767 -16.6514 -80.8342
rradius 22.7613
rwrist 35.9778
rhand -18.4769 -27.4395
rfingers 7.12502
rthumb 7.81001 -57.2753
lclavicle -5.26779e-015 2.18663e-015
lhumerus -18.2131 3.99905 84.9828
lradius 16.8882
lwrist -4.70927
lhand -25.6961 -3.10911
lfingers 7.12502
lthumb 0.839253 26.869
rfemur -9.02195 -5.56881 21.0017
rtibia 18.8711
rfoot -13.6534 -4.29514
rtoes 17.395
lfemur -4.94598 6.38344 -15.7944
ltibia 11.4097
lfoot -7.83602 7.70513
ltoes 4.06987
4
root -0.202288 17.6688 -13.7384 4.92761 -0.40791 -1.05667
lowerback -5.54188 -0.784724 -0.586123
upperback 2.45768 -1.07561 1.35863
thorax 5.70174 -0.580863 1.62987
lowerneck -13.5458 0.0163872 -2.37344
upperneck 13.443 -0.294038 4.97488
head 6.32067 0.14652 1.95243
rclavicle 1.35422e-014 -4.17448e-015
rhumerus -23.4225 -16.5705 -81.0234
rradius 22.7504
rwrist 35.9216
rhand -18.5309 -27.3493
rfingers 7.12502
rthumb 7.75794 -57.187
lclavicle 1.35422e-014 -4.17448e-015
lhumerus -18.2402 3.96291 84.8549
lradius 16.9775
lwrist -4.52449
lhand -25.7273 -3.01133
lfingers 7.12502
lthumb 0.809168 26.9669
rfemur -9.00584 -5.58161 20.9564
rtibia 18.8449
rfoot -13.6565 -4.33929
rtoes 17.2988
lfemur -4.94328 6.36983 -15.8441
ltibia 11.3934
lfoot -7.85671 7.68563
ltoes 4.01577
5
root -0.190692 17.6693 -13.7329 4.95054 -0.386237 -1.06177
lowerback -5.56512 -0.771663 -0.600467
upperback 2.44093 -1.05674 1.35615
thorax 5.69701 -0.571889 1.63715
lowerneck -13.5501 0.033926 -2.3629
upperneck 13.3893 -0.270663 4.9772
head 6.30338 0.158208 1.95308
rclavicle 1.62755e-014 -1.61016e-014
rhumerus -23.4084 -16.4536 -81.2124
rradius 22.7845
rwrist 35.8208
rhand -18.5265 -27.3366
rfingers 7.12502
rthumb 7.76214 -57.1741
lclavicle 1.62755e-014 -1.61016e-014
lhumerus -18.2811 3.87082 84.7342
lradius 17.0493
lwrist -4.28994
lhand -25.7829 -2.97981
lfingers 7.12502
lthumb 0.755415 26.9986
rfemur -8.99129 -5.5609 20.9241
rtibia 18.8112
rfoot -13.6537 -4.40375
rtoes 17.2001
lfemur -4.94902 6.36613 -15.8816
ltibia 11.3873
lfoot -7.88651 7.67167
ltoes 4.03738
6
root -0.179202 17.6697 -13.7275 4.97325 -0.362108 -1.07209
lowerback -5.58698 -0.759276 -0.610509
upperback 2.42483 -1.03922 1.35573
thorax 5.69217 -0.563469 1.64401
lowerneck -13.5502 0.0522939 -2.35065
upperneck 13.3293 -0.246988 4.9836
head 6.28342 0.17036 1.95469
rclavicle 6.68413e-015 4.17448e-015
rhumerus -23.3924 -16.3236 -81.4079
rradius 22.8271
rwrist 35.7086
rhand -18.5208 -27.3379
rfingers 7.12502
rthumb 7.76771 -57.1752
lclavicle 6.68413e-015 4.17448e-015
lhumerus -18.3235 3.79056 84.624
lradius 17.1169
lwrist -4.07468
lhand -25.8243 -2.97318
lfingers 7.12502
lthumb 0.715394 27.0054
rfemur -8.9757 -5.5405 20.8978
rtibia 18.7757
rfoot -13.6505 -4.46724
rtoes 17.1112
lfemur -4.95712 6.35577 -15.913
ltibia 11.3845
lfoot -7.91561 7.66337
ltoes 4.05712
7
root -0.167856 17.6702 -13.7223 4.99565 -0.334386 -1.0851
lowerback -5.60744 -0.74791 -0.620245
upperback 2.40929 -1.02321 1.35752
thorax 5.68721 -0.555831 1.65288
lowerneck -13.5395 0.0665296 -2.34782
upperneck 13.2629 -0.228684 5.00112
head 6.25979 0.180158 1.96079
rclavicle 3.47873e-015 -1.86858e-014
rhumerus -23.377 -16.1764 -81.6082
rradius 22.8802
rwrist 35.577
rhand -18.5245 -27.3352
rfingers 7.12502
rthumb 7.76409 -57.1726
lclavicle 3.47873e-015 -1.86858e-014
lhumerus -18.3642 3.727 84.5256
lradius 17.1752
lwrist -3.89186
lhand -25.8484 -2.95967
lfingers 7.12502
lthumb 0.692205 27.0189
rfemur -8.9587 -5.52137 20.875
rtibia 18.7378
rfoot -13.6458 -4.53036
rtoes 17.034
lfemur -4.97158 6.34223 -15.9407
ltibia 11.3921
lfoot -7.94796 7.65547
ltoes 4.06804
8
root -0.156696 17.6706 -13.7172 5.01699 -0.3078 -1.0992
lowerback -5.62445 -0.735933 -0.630978
upperback 2.39308 -1.00635 1.36033
thorax 5.67956 -0.547811 1.66349
lowerneck -13.5161 0.0791535 -2.34913
upperneck 13.1863 -0.212856 5.02724
head 6.23085 0.189002 1.9699
rclavicle 8.19987e-016 -1.15295e-014
rhumerus -23.3673 -16.0105 -81.8138
rradius 22.9497
rwrist 35.4301
rhand -18.5235 -27.3388
rfingers 7.12502
rthumb 7.76511 -57.1762
lclavicle 8.19987e-016 -1.15295e-014
lhumerus -18.4053 3.67027 84.4393
lradius 17.2239
lwrist -3.73678
lhand -25.8649 -2.9666
lfingers 7.12502
lthumb 0.67625 27.0121
rfemur -8.94084 -5.50309 20.854
rtibia 18.6995
rfoot -13.639 -4.59082
rtoes 16.9525
lfemur -4.98765 6.33066 -15.9664
ltibia 11.4046
lfoot -7.98219 7.64773
ltoes 4.08375
9
root -0.145632 17.671 -13.7122 5.03716 -0.284255 -1.11159
lowerback -5.64305 -0.722923 -0.643844
upperback 2.38073 -0.987931 1.36236
thorax 5.67686 -0.539131 1.67464
lowerneck -13.4961 0.0866341 -2.35533
upperneck 13.1093 -0.204085 5.06064
head 6.20271 0.194802 1.98151
rclavicle 5.01931e-015 7.15625e-015
rhumerus -23.3517 -15.8443 -82.0232
rradius 23.0215
rwrist 35.284
rhand -18.5296 -27.3319
rfingers 7.12502
rthumb 7.75921 -57.1695
lclavicle 5.01931e-015 7.15625e-015
lhumerus -18.4421 3.62912 84.3632
lradius 17.2647
lwrist -3.62193
lhand -25.8722 -2.96845
lfingers 7.12502
lthumb 0.669141 27.0102
rfemur -8.92329 -5.48711 20.8307
rtibia 18.6637
rfoot -13.6325 -4.64579
rtoes 16.8705
lfemur -5.00279 6.32472 -15.9937
ltibia 11.4182
lfoot -8.01662 7.63743
ltoes 4.09323
10
root -0.134681 17.6713 -13.7072 5.05646 -0.262139 -1.121
lowerback -5.66044 -0.710053 -0.660288
upperback 2.36992 -0.969378 1.36346
thorax 5.67511 -0.530509 1.68686
lowerneck -13.4794 0.0930216 -2.36658
upperneck 13.0347 -0.197283 5.10359
head 6.17597 0.200212 1.99686
rclavicle 8.82107e-015 1.0138e-014
rhumerus -23.3408 -15.6542 -82.2393
rradius 23.1092
rwrist 35.1168
rhand -18.5391 -27.321
rfingers 7.12502
rthumb 7.74999 -57.159
lclavicle 8.82107e-015 1.0138e-014
lhumerus -18.477 3.59855 84.2978
lradius 17.2956
lwrist -3.53753
lhand -25.8694 -2.95383
lfingers 7.12502
lthumb 0.671857 27.0249
rfemur -8.90723 -5.47514 20.8039
rtibia 18.6313
rfoot -13.6267 -4.69514
rtoes 16.7942
lfemur -5.01709 6.3243 -16.0239
ltibia 11.4312
lfoot -8.0492 7.62148
ltoes 4.10124
11
root -0.123834 17.6716 -13.7024 5.07648 -0.244098 -1.12678
lowerback -5.67566 -0.696322 -0.682102
upperback 2.35864 -0.949222 1.36433
thorax 5.67164 -0.521276 1.70205
lowerneck -13.4716 0.0986775 -2.3721
upperneck 12.9675 -0.192258 5.14339
head 6.1532 0.20495 2.01023
rclavicle 7.45443e-017 -6.75868e-015
rhumerus -23.3303 -15.4585 -82.4568
rradius 23.2017
rwrist 34.9509
rhand -18.5487 -27.3015
rfingers 7.12502
rthumb 7.74073 -57.1398
lclavicle 7.45443e-017 -6.75868e-015
lhumerus -18.5125 3.58091 84.244
lradius 17.3176
lwrist -3.48237
lhand -25.862 -2.92499
lfingers 7.12502
lthumb 0.679018 27.0537
rfemur -8.89497 -5.46427 20.7732
rtibia 18.603
rfoot -13.621 -4.73983
rtoes 16.7149
lfemur -5.03101 6.32886 -16.0577
ltibia 11.4422
lfoot -8.0809 7.60291
ltoes 4.11467
